<?xml version="1.0" encoding="UTF-8"?>
<svg width="200" height="200" viewBox="0 0 200 200" xmlns="http://www.w3.org/2000/svg">
  <style>
    .circuit { stroke: #CCFF00; stroke-width: 1; fill: none; opacity: 0.3; }
    .node { fill: #CCFF00; opacity: 0.2; }
    @keyframes pulse {
      0%, 100% { opacity: 0.2; }
      50% { opacity: 0.4; }
    }
    .pulse { animation: pulse 3s infinite; }
  </style>
  
  <!-- Main circuit paths -->
  <path class="circuit" d="M10,30 L40,30 L40,70 L70,70" />
  <path class="circuit" d="M30,10 L30,90" />
  <path class="circuit" d="M70,20 L70,80" />
  <path class="circuit" d="M50,50 L90,50" />
  
  <!-- Additional circuit elements -->
  <path class="circuit" d="M110,10 C130,10 130,50 110,50" />
  <path class="circuit" d="M150,30 L180,30 L180,60 L150,60 Z" />
  <path class="circuit" d="M20,120 L50,120 L50,150 L80,150" />
  <path class="circuit" d="M120,100 L120,130 L150,130" />
  <path class="circuit" d="M160,80 L160,110 L190,110" />
  
  <!-- Hexagonal patterns -->
  <path class="circuit" d="M100,160 L110,170 L100,180 L90,170 Z" />
  <path class="circuit" d="M140,140 L150,150 L140,160 L130,150 Z" />
  <path class="circuit" d="M170,170 L180,180 L170,190 L160,180 Z" />
  
  <!-- Connection nodes -->
  <circle class="node pulse" cx="30" cy="30" r="2" />
  <circle class="node pulse" cx="70" cy="70" r="2" />
  <circle class="node pulse" cx="50" cy="50" r="2" />
  <circle class="node pulse" cx="110" cy="50" r="2" />
  <circle class="node pulse" cx="150" cy="30" r="2" />
  <circle class="node pulse" cx="120" cy="130" r="2" />
  <circle class="node pulse" cx="160" cy="110" r="2" />
  
  <!-- Data flow indicators -->
  <path class="circuit" d="M10,10 L20,10 M15,5 L20,10 L15,15" />
  <path class="circuit" d="M180,180 L190,180 M185,175 L190,180 L185,185" />
  
  <!-- Corner elements -->
  <path class="circuit" d="M5,5 L15,5 L15,15" />
  <path class="circuit" d="M185,5 L195,5 L195,15" />
  <path class="circuit" d="M5,185 L5,195 L15,195" />
  <path class="circuit" d="M185,185 L195,185 L195,195" />
  
  <!-- Circuit chips -->
  <rect class="circuit" x="80" y="80" width="20" height="20" />
  <rect class="circuit" x="140" y="90" width="15" height="15" />
  <rect class="circuit" x="100" y="120" width="25" height="10" />
</svg> 